<?xml version="1.0" encoding="UTF-8"?><svg id="Layer_2" xmlns="http://www.w3.org/2000/svg" viewBox="0 0 240.54 240.54"><defs><style>.cls-1{fill:#fff;}</style></defs><g id="Layer_1-2"><path class="cls-1" d="m212.92,94.95l-41.56,14.75v6.34l21.19-7.52c8.16-2.9,16.74,3.16,16.74,11.82v72.99c0,4.37-2.75,8.27-6.87,9.73l-31.06,11v6.32l69.18-24.42v-81.5c0-14.3-14.15-24.29-27.62-19.51Z"/><path class="cls-1" d="m57.08,43.26l7.85-2.78c4.09-1.45,8.38,1.59,8.38,5.93v90.77c0,4.36-2.75,8.26-6.86,9.72l-9.37,3.34v6.34l47.43-16.84v-6.34h0V20.17l-47.43,16.75v6.35Z"/><path class="cls-1" d="m0,63.33l7.74-2.71c4.09-1.43,8.37,1.6,8.37,5.93v90.9c0,4.34-2.71,8.21-6.79,9.7l-9.32,3.39v6.34l47.43-16.97V40.3L0,56.98v6.34Z"/><path class="cls-1" d="m114.29,23.01l7.82-2.73c4.09-1.43,8.36,1.61,8.36,5.94l-.08,195c0,4.37-2.76,8.27-6.88,9.73l-9.21,3.26v6.34l47.43-16.75V0l-47.43,16.67v6.34Z"/></g></svg>